<svg width="852" height="884" viewBox="0 0 852 884" fill="none" xmlns="http://www.w3.org/2000/svg">
<path fill-rule="evenodd" clip-rule="evenodd" d="M438.481 63.7584C445.232 70.4561 454.097 74.606 463.565 75.5024L463.561 75.5955C466.233 99.4991 468.629 124.209 457.546 145.567C454.525 151.393 450.606 156.669 446.683 161.948C444.06 165.48 441.435 169.013 439.076 172.714C433.194 181.946 428.918 194.787 431.539 205.425L431.43 206.281C443.184 207.874 454.845 210.084 466.366 212.9L467.58 212.343C488.072 201.34 509.364 185.76 519.621 164.886C529.877 144.012 528.297 116.042 510.999 100.488C516.224 84.4587 520.802 67.8443 519.852 51.0189C518.901 34.1935 511.588 16.944 497.436 7.77876C486.637 0.78191 473.1 -0.798383 460.28 0.332366C430.619 2.92757 402.521 19.7116 386.175 44.5874C382.264 38.5662 375.034 35.3146 367.879 34.674C360.724 34.0335 353.569 35.6883 346.672 37.676C335.632 40.8532 324.083 45.5361 317.927 55.2337C309.474 68.5552 314.174 85.9404 319.008 100.961C323.842 115.981 328.244 133.53 319.383 146.588C312.388 156.902 299.529 160.729 287.396 164.339C286.252 164.68 285.116 165.018 283.99 165.36C261.563 172.163 239.479 183.414 225.56 202.27C211.64 221.126 207.913 248.796 221.441 267.942L221.492 268C227.216 262.751 233.266 257.868 239.604 253.379C275.462 228.003 323.759 216.625 365.375 230.715L365.858 230.707C365.425 226.24 364.984 220.027 365.891 215.628C366.798 211.228 369.252 206.92 373.262 204.89C376.232 203.385 379.693 203.277 383.03 203.243C385.454 203.221 387.88 203.227 390.31 203.26V203.127C388.96 186.589 387.613 170.253 386.266 153.918C384.888 137.212 383.511 120.507 382.131 103.589V103.506C394.519 103.677 406.643 99.9231 416.765 92.7828C426.888 85.6426 434.489 75.4824 438.481 63.7584ZM505.884 25.8046C498.63 12.4679 484.388 2.43045 469.031 2.51595C468.342 2.52008 467.786 3.08202 467.79 3.77081C467.793 4.4596 468.356 5.01532 469.045 5.01118C483.317 4.93189 496.791 14.3109 503.692 26.9967C510.59 39.679 511.494 55.0999 508.376 69.3577C508.229 70.0313 508.656 70.696 509.329 70.8435C510.002 70.9904 510.667 70.5643 510.814 69.8907C514.024 55.213 513.141 39.1453 505.884 25.8046Z" fill="#171717"/>
<mask id="mask0_1_436" style="mask-type:luminance" maskUnits="userSpaceOnUse" x="0" y="0" width="852" height="884">
<path d="M852 0H0V884H852V0Z" fill="white"/>
</mask>
<g mask="url(#mask0_1_436)">
<path fill-rule="evenodd" clip-rule="evenodd" d="M637.659 378.122C644.449 366.432 648.583 353.39 649.768 339.922C650.368 333.297 650.22 326.626 649.329 320.034C648.208 311.529 645.746 303.255 642.035 295.52C631.308 273.353 611.203 257.394 589.376 245.548L588.345 245.164C581.193 264.545 573.746 284.694 566.364 304.536L568.525 305.336C579.724 309.372 583.299 317.631 581.983 326.581C580.535 336.519 573.055 347.3 563.293 354.112C559.513 356.878 556.203 360.233 553.487 364.049C545.842 374.348 540.194 388.618 539.119 400.398C538.922 402.329 538.87 404.272 538.965 406.211C539.305 412.725 540.951 419.692 545.919 423.925C552.16 429.256 561.472 428.576 569.479 426.744C595.079 420.898 618.76 405.808 633.699 384.308C635.099 382.3 636.419 380.238 637.659 378.122ZM599.494 260.576C598.722 260.095 597.707 260.332 597.227 261.103C596.747 261.875 596.983 262.889 597.754 263.37C614.545 273.821 626.887 290.103 632.415 309.093C637.943 328.082 636.267 348.444 627.709 366.275C627.362 366.997 627.586 367.864 628.239 368.328C628.891 368.792 629.784 368.718 630.352 368.154L631.622 366.892C632.144 366.373 632.245 365.592 631.925 364.971C639.736 347.078 641.049 326.979 635.575 308.173C629.821 288.405 616.973 271.456 599.494 260.576Z" fill="#171717"/>
<path fill-rule="evenodd" clip-rule="evenodd" d="M549.878 301.478L574.217 238.146L573.745 237.973C538.712 221.957 501.199 213.457 462.899 210.157C435.055 207.905 407.074 207.923 379.232 210.212C372.706 210.713 366.202 211.309 359.72 212C327.144 215.455 293.953 221.367 265.765 238.05C237.577 254.733 215.048 284.161 214.565 316.912V316.923C276.797 302.169 349.023 293.723 426.065 293.723C467.216 293.612 508.331 296.11 549.165 301.203L549.878 301.478ZM480.08 216.131C479.178 216.022 478.358 216.664 478.248 217.566C478.139 218.468 478.781 219.289 479.683 219.398C508.348 222.881 536.24 231.074 562.234 243.646C563.052 244.042 564.036 243.699 564.432 242.881C564.828 242.063 564.485 241.079 563.667 240.683C537.347 227.953 509.104 219.658 480.08 216.131Z" fill="#171717"/>
<path d="M568.525 305.339C579.725 309.375 583.299 317.639 581.983 326.584L580.908 326.431C574.591 325.378 565.958 324.051 559.641 322.998L559.509 322.943C561.775 316.855 564.06 310.722 566.364 304.543L568.525 305.339Z" fill="url(#paint0_linear_1_436)"/>
<path d="M849.567 467.6C849.577 492.548 847.297 517.445 842.756 541.977C806.933 657.061 634 744.325 426.068 744.325C218.136 744.325 45.1917 657.061 9.36872 541.981C4.82662 517.448 2.54662 492.55 2.55772 467.6C2.55772 403.194 87.837 346.97 214.565 316.917C276.8 302.165 349.026 293.717 426.065 293.717C467.215 293.606 508.331 296.104 549.165 301.197L549.878 301.472L542.189 321.478L541.805 321.324C504.133 317.284 466.269 315.307 428.382 315.4C206.251 315.4 26.1727 381.955 26.1727 464.054C26.1727 487.142 40.4207 509.013 65.834 528.504C130.789 578.322 268.727 612.704 428.382 612.704C601.935 612.704 749.81 572.077 806.198 515.162C821.982 499.225 830.598 482.016 830.598 464.05C830.598 412.18 758.722 366.519 649.763 339.921C650.363 333.297 650.215 326.626 649.324 320.035L649.872 319.958C769.783 350.66 849.567 405.3 849.567 467.6Z" fill="url(#paint1_linear_1_436)"/>
<path d="M813.9 633.292C762.84 737.941 608.362 814.007 425.717 814.007C245.979 814.007 93.517 740.343 40.059 638.261C36.8343 631.285 33.801 624.206 30.959 617.026L31.65 616.752C38.56 612.277 48.136 618.079 51.437 625.625C54.738 633.171 54.113 641.76 55.408 649.876C56.703 657.992 61.232 666.844 69.315 668.376C74.756 669.396 80.295 666.786 85.815 667.235C97.606 668.19 103.649 681.626 106.457 693.121C109.265 704.616 112.874 718.172 124.007 722.176C140.459 728.076 158.02 707.39 174.318 713.686C193.59 721.145 188.676 757.086 208.704 762.155C225.464 766.4 237.365 743.136 254.563 741.392C269.842 739.857 280.832 755.355 287.633 769.131C294.434 782.907 303.339 799.009 318.651 800.205C332.46 801.291 343.396 789.467 352.763 779.266C362.13 769.065 375.456 758.689 388.487 763.384C406.287 769.8 407.879 799.075 426.229 803.715C439.698 807.115 451.489 794.534 459.342 783.072C467.195 771.61 477.593 758.415 491.403 759.918C510.246 761.969 518.209 790.048 537.141 791.145C564.496 792.735 567.687 740.01 595.086 739.297C613.327 738.837 625.414 763.658 643.545 761.673C670.22 758.755 666.512 706.414 693.253 704.264C706.602 703.19 718.437 717.141 731.489 714.136C753.089 709.145 744.059 670.822 762.825 659.02C771.403 653.62 783.04 655.938 791.979 651.167C802.849 645.367 805.997 631.632 808.979 619.688C811.961 607.744 817.907 594.109 830.017 591.905L830.148 591.949C825.617 606.069 820.312 619.928 814.255 633.464L813.9 633.292Z" fill="#171717"/>
<path d="M813.9 633.292L814.251 633.468C748.858 779.668 599.651 881.813 426.07 881.813C254.382 881.813 106.551 781.892 40.0605 638.261C93.521 740.343 245.981 814.007 425.719 814.007C608.362 814.007 762.84 737.941 813.9 633.292Z" fill="url(#paint2_linear_1_436)"/>
<path d="M830.6 464.051C830.6 482.017 821.979 499.226 806.2 515.163L804.917 513.255C796.811 469.743 763.128 434.348 723.992 413.695C696.012 398.931 665.334 390.595 634.14 384.618L633.701 384.311C635.105 382.303 636.425 380.241 637.661 378.125C644.452 366.434 648.586 353.392 649.77 339.925C758.727 366.52 830.6 412.181 830.6 464.051Z" fill="#171717"/>
<path d="M624.266 107.908L636.66 113.327C636.66 113.327 614.515 174.227 588.345 245.166C581.193 264.547 573.745 284.696 566.364 304.538C564.072 310.713 561.787 316.846 559.509 322.938C554.749 335.705 550.065 348.22 545.557 360.175L545.524 360.241C539.65 357.373 533.554 354.985 527.295 353.101L530.202 352.684L542.19 321.479L549.879 301.473L574.218 238.141L624.266 107.908Z" fill="url(#paint3_linear_1_436)"/>
<path d="M580.907 326.431L581.982 326.584C580.534 336.522 573.054 347.303 563.292 354.115C559.513 356.881 556.202 360.236 553.486 364.052L553.3 363.921C552.379 363.613 549.45 362.111 545.523 360.246L545.556 360.18C550.064 348.225 554.748 335.71 559.508 322.943L559.64 322.998C565.957 324.051 574.59 325.378 580.907 326.431Z" fill="#171717"/>
<path d="M542.19 321.484L530.2 352.689L527.293 353.106C520.262 351.186 513.857 350.857 511.148 354.696C509.048 357.658 510.764 362.319 513.802 364.304C512.096 364.028 510.349 364.162 508.705 364.694C507.061 365.226 505.567 366.142 504.347 367.365L503.766 366.301C407.573 356.308 310.566 354.762 215.485 371.05C174.792 378.015 133.101 388.983 101.513 415.57C69.925 442.157 51.387 488.082 67.522 526.077L65.832 528.501C40.4189 509.01 26.1709 487.139 26.1709 464.051C26.1709 381.951 206.249 315.397 428.38 315.397C466.268 315.307 504.132 317.287 541.804 321.33L542.19 321.484Z" fill="#171717"/>
<path d="M530.684 399.348V399.568C513.968 442.673 501.311 473.121 498.843 473.341L498.832 474.416C494.786 474.33 490.758 473.864 486.8 473.023L487.228 471.023L513.212 402.175L513.179 401.747C516.42 401.478 519.64 401.002 522.82 400.321C525.411 399.789 528.041 399.464 530.684 399.348Z" fill="url(#paint4_linear_1_436)"/>
<path d="M463.975 200.207C464.348 203.432 463.635 206.678 462.922 209.848L462.9 210.155C435.056 207.903 407.074 207.921 379.233 210.21L379.133 208.894C375.601 206.481 376.588 200.547 379.944 197.871C383.3 195.195 387.874 194.854 392.152 194.635L394.587 194.503C408.758 193.77 422.933 193.031 437.111 192.288C442.058 192.035 447.001 191.779 451.94 191.52C454.321 191.399 456.821 191.301 458.982 192.32C461.913 193.714 463.6 196.982 463.975 200.207Z" fill="url(#paint5_linear_1_436)"/>
<path d="M429.786 134.693C430.949 137.161 435.073 136.36 436.345 133.947C437.617 131.534 436.971 128.605 436.28 125.962C434.338 118.394 432.389 110.822 430.433 103.247C429.533 99.781 428.657 96.008 430.017 92.695C431.651 88.747 436.137 86.595 440.404 86.454C444.671 86.313 448.795 87.803 452.798 89.262" stroke="#171717" stroke-width="3.291" stroke-linecap="round" stroke-linejoin="round"/>
<path d="M440.689 98.607C440.68 99.453 440.858 100.291 441.211 101.06C441.565 101.829 442.084 102.511 442.732 103.055C443.38 103.599 444.141 103.993 444.96 104.208C445.778 104.424 446.634 104.455 447.466 104.299C448.299 104.144 449.086 103.806 449.772 103.31C450.457 102.814 451.025 102.172 451.433 101.431C451.841 100.689 452.08 99.866 452.132 99.022C452.184 98.177 452.048 97.331 451.734 96.545" stroke="#171717" stroke-width="3.291" stroke-linecap="round" stroke-linejoin="round"/>
<path d="M405.907 97.828C405.625 98.602 405.525 99.43 405.615 100.249C405.705 101.068 405.982 101.855 406.424 102.55C406.867 103.244 407.464 103.827 408.169 104.254C408.873 104.681 409.667 104.94 410.488 105.01C411.308 105.081 412.134 104.962 412.902 104.662C413.669 104.362 414.357 103.889 414.912 103.281C415.467 102.672 415.874 101.944 416.103 101.152C416.331 100.361 416.374 99.527 416.228 98.717" stroke="#171717" stroke-width="3.291" stroke-linecap="round" stroke-linejoin="round"/>
<path d="M402.344 143.5C402.716 151.112 411.206 157.177 418.522 155.049" stroke="#171717" stroke-width="3.291" stroke-linecap="round" stroke-linejoin="round"/>
<path d="M437.058 191.312C432.958 187.736 431.858 178.852 434.547 174.112C437.236 169.372 441.928 166.193 446.568 163.352C451.208 160.511 456.068 157.714 459.401 153.415C464.337 147.042 465.115 138.454 465.346 130.392C465.84 113.037 464.731 95.674 462.033 78.523" stroke="#171717" stroke-width="3.291" stroke-linecap="round" stroke-linejoin="round"/>
<path d="M379.135 208.894C375.603 206.481 376.59 200.547 379.946 197.871C383.302 195.195 387.876 194.854 392.154 194.635L394.589 194.503C408.76 193.77 422.935 193.031 437.113 192.288C442.06 192.035 447.003 191.779 451.942 191.52C454.323 191.399 456.823 191.301 458.984 192.32C461.913 193.713 463.602 196.981 463.975 200.206C464.348 203.431 463.635 206.677 462.922 209.847" stroke="#171717" stroke-width="3.291" stroke-linecap="round" stroke-linejoin="round"/>
<path d="M649.625 339.889L649.768 339.922C758.727 366.52 830.6 412.181 830.6 464.051C830.6 482.017 821.979 499.226 806.2 515.163C749.812 572.078 601.937 612.705 428.384 612.705C268.729 612.705 130.791 578.319 65.836 528.505C40.4228 509.014 26.1748 487.143 26.1748 464.055C26.1748 381.955 206.253 315.401 428.384 315.401C466.272 315.311 504.136 317.291 541.808 321.334" stroke="#171717" stroke-width="3.291" stroke-linecap="round" stroke-linejoin="round"/>
<path d="M849.567 467.6C849.578 492.549 847.298 517.445 842.756 541.977C836.9 573.492 827.331 604.201 814.249 633.464C748.856 779.664 599.649 881.809 426.068 881.809C254.38 881.809 106.549 781.888 40.0588 638.257C36.8341 631.281 33.8008 624.203 30.9588 617.022C12.1469 569.453 2.51019 518.753 2.55779 467.6" stroke="#171717" stroke-width="3.291" stroke-linecap="round" stroke-linejoin="round"/>
<path d="M649.877 319.959C769.783 350.659 849.567 405.304 849.567 467.604" stroke="#171717" stroke-width="3.291" stroke-linecap="round" stroke-linejoin="round"/>
<path d="M2.55762 467.6C2.55762 403.194 87.837 346.97 214.565 316.917C276.8 302.165 349.026 293.717 426.065 293.717C467.215 293.606 508.331 296.104 549.165 301.197" stroke="#171717" stroke-width="3.291" stroke-linecap="round" stroke-linejoin="round"/>
<path d="M634.138 384.618C665.332 390.596 696.01 398.931 723.99 413.695C763.126 434.348 796.809 469.743 804.915 513.255" stroke="#171717" stroke-width="3.291" stroke-linecap="round" stroke-linejoin="round"/>
<path d="M67.524 526.077C51.389 488.077 69.937 442.158 101.515 415.57C133.093 388.982 174.794 378.015 215.487 371.05C310.571 354.762 407.575 356.308 503.768 366.301" stroke="#171717" stroke-width="3.291" stroke-linecap="round" stroke-linejoin="round"/>
<path d="M849.567 497.7C849.552 512.719 847.255 527.649 842.756 541.979C806.933 657.061 634 744.325 426.068 744.325C218.136 744.325 45.1916 657.061 9.36862 541.981C4.86862 527.651 2.57212 512.72 2.55762 497.7" stroke="#171717" stroke-width="3.291" stroke-linecap="round" stroke-linejoin="round"/>
<path d="M813.952 633.172C813.929 633.21 813.911 633.25 813.897 633.292C762.839 737.941 608.361 814.007 425.716 814.007C245.978 814.007 93.516 740.343 40.0585 638.261C39.3125 636.846 38.5995 635.431 37.8975 634.016" stroke="#171717" stroke-width="3.291" stroke-linecap="round" stroke-linejoin="round"/>
<path d="M31.6455 616.752C38.5555 612.277 48.132 618.079 51.433 625.625C54.734 633.171 54.109 641.76 55.404 649.876C56.699 657.992 61.228 666.844 69.311 668.376C74.752 669.396 80.291 666.786 85.811 667.235C97.602 668.19 103.645 681.626 106.453 693.121C109.261 704.616 112.87 718.172 124.003 722.176C140.455 728.076 158.016 707.39 174.314 713.686C193.586 721.145 188.672 757.086 208.7 762.155C225.46 766.4 237.361 743.136 254.559 741.392C269.838 739.857 280.828 755.355 287.629 769.131C294.43 782.907 303.335 799.009 318.647 800.205C332.456 801.291 343.392 789.467 352.759 779.266C362.126 769.065 375.452 758.689 388.483 763.384C406.283 769.8 407.875 799.075 426.225 803.715C439.694 807.115 451.485 794.534 459.338 783.072C467.191 771.61 477.588 758.415 491.398 759.918C510.241 761.969 518.205 790.048 537.137 791.145C564.492 792.735 567.682 740.01 595.081 739.297C613.322 738.837 625.41 763.658 643.541 761.673C670.216 758.755 666.508 706.414 693.249 704.264C706.598 703.19 718.432 717.141 731.484 714.136C753.084 709.145 744.054 670.822 762.82 659.02C771.398 653.62 783.035 655.938 791.974 651.167C802.844 645.367 805.992 631.632 808.974 619.688C811.956 607.744 817.903 594.109 830.013 591.905" stroke="#171717" stroke-width="3.291" stroke-linecap="round" stroke-linejoin="round"/>
<path d="M66.855 587.137C65.264 583.847 63.673 580.553 62.083 577.255C60.054 573.065 58.029 568.878 56.007 564.696" stroke="#171717" stroke-width="3.291" stroke-linecap="round" stroke-linejoin="round"/>
<path d="M50.566 583.32C57.013 581.081 62.841 577.354 67.577 572.44" stroke="#171717" stroke-width="3.291" stroke-linecap="round" stroke-linejoin="round"/>
<path d="M161.292 659.145C159.559 656.645 157.837 654.145 156.104 651.645C153.724 648.201 151.34 644.757 148.953 641.313" stroke="#171717" stroke-width="3.291" stroke-linecap="round" stroke-linejoin="round"/>
<path d="M146.562 660.713C149.742 657.697 152.922 654.673 156.104 651.642C158.089 649.767 160.064 647.88 162.049 645.994" stroke="#171717" stroke-width="3.291" stroke-linecap="round" stroke-linejoin="round"/>
<path d="M285.925 694C282.378 687.252 277.952 681.004 272.763 675.42" stroke="#171717" stroke-width="3.291" stroke-linecap="round" stroke-linejoin="round"/>
<path d="M271.414 694.189C274.387 691.063 277.356 687.929 280.321 684.789C282.745 682.221 285.173 679.658 287.604 677.1" stroke="#171717" stroke-width="3.291" stroke-linecap="round" stroke-linejoin="round"/>
<path d="M430.839 700.879C428.799 697.886 426.545 695.045 424.094 692.379C421.346 689.356 418.36 686.557 415.166 684.01" stroke="#171717" stroke-width="3.291" stroke-linecap="round" stroke-linejoin="round"/>
<path d="M414.562 704.159C417.742 700.231 420.92 696.305 424.094 692.379C426.573 689.319 429.048 686.258 431.519 683.198" stroke="#171717" stroke-width="3.291" stroke-linecap="round" stroke-linejoin="round"/>
<path d="M577.859 683.1C574.985 680.862 572.115 678.62 569.249 676.376L560.891 669.861" stroke="#171717" stroke-width="3.291" stroke-linecap="round" stroke-linejoin="round"/>
<path d="M563.842 687.015C565.642 683.472 567.444 679.925 569.249 676.376C571.267 672.405 573.282 668.438 575.293 664.476" stroke="#171717" stroke-width="3.291" stroke-linecap="round" stroke-linejoin="round"/>
<path d="M725.691 628.192C722.784 626.163 719.873 624.127 716.96 622.083C714.711 620.503 712.452 618.935 710.203 617.355" stroke="#171717" stroke-width="3.291" stroke-linecap="round" stroke-linejoin="round"/>
<path d="M712.736 632.152C714.14 628.795 715.548 625.438 716.959 622.083C718.582 618.189 720.213 614.295 721.851 610.401" stroke="#171717" stroke-width="3.291" stroke-linecap="round" stroke-linejoin="round"/>
<path d="M817.046 560.089C814.414 559.101 811.78 558.118 809.146 557.139C807.412 556.491 805.687 555.844 803.969 555.198" stroke="#171717" stroke-width="3.291" stroke-linecap="round" stroke-linejoin="round"/>
<path d="M807.087 566.276C807.767 563.226 808.458 560.188 809.149 557.139C809.73 554.507 810.333 551.863 810.926 549.231" stroke="#171717" stroke-width="3.291" stroke-linecap="round" stroke-linejoin="round"/>
<path d="M589.376 245.55C611.203 257.396 631.308 273.355 642.035 295.522C645.746 303.256 648.208 311.53 649.329 320.036C650.22 326.627 650.368 333.298 649.768 339.922C648.583 353.389 644.449 366.431 637.659 378.122C636.419 380.238 635.099 382.3 633.699 384.308C618.76 405.808 595.079 420.898 569.479 426.744C561.472 428.576 552.16 429.256 545.919 423.925C540.951 419.692 539.305 412.725 538.965 406.211C538.87 404.272 538.922 402.329 539.119 400.398C540.194 388.618 545.842 374.348 553.487 364.049C556.203 360.233 559.513 356.878 563.293 354.112C573.055 347.3 580.535 336.519 581.983 326.581C583.299 317.631 579.724 309.372 568.525 305.336" stroke="#171717" stroke-width="3.291" stroke-linecap="round" stroke-linejoin="round"/>
<path d="M214.564 316.91C215.047 284.159 237.576 254.731 265.764 238.048C293.952 221.365 327.143 215.453 359.719 211.998C366.201 211.307 372.705 210.711 379.231 210.21C407.073 207.921 435.054 207.903 462.898 210.155C501.198 213.455 538.711 221.955 573.744 237.971" stroke="#171717" stroke-width="3.291" stroke-linecap="round" stroke-linejoin="round"/>
<path d="M537.737 400.27C535.458 399.553 533.071 399.241 530.684 399.348C528.041 399.465 525.411 399.792 522.82 400.324C519.64 401.005 516.42 401.481 513.179 401.75C511.401 401.866 509.616 401.777 507.859 401.487C502.901 400.643 497.988 397.275 497.022 392.34C496.056 387.405 500.883 381.788 505.687 383.269C503.788 381.826 502.416 379.799 501.78 377.501C501.144 375.202 501.28 372.759 502.167 370.545C502.683 369.354 503.424 368.275 504.349 367.365C505.569 366.142 507.062 365.226 508.705 364.693C510.348 364.16 512.094 364.025 513.8 364.3C510.762 362.315 509.051 357.654 511.146 354.692C513.855 350.853 520.26 351.182 527.291 353.102C533.55 354.986 539.646 357.374 545.52 360.242C549.447 362.107 552.376 363.609 553.297 363.917" stroke="#171717" stroke-width="3.291" stroke-linecap="round" stroke-linejoin="round"/>
<path d="M513.211 402.178L487.228 471.026" stroke="#171717" stroke-width="3.291" stroke-linecap="round" stroke-linejoin="round"/>
<path d="M545.557 360.18C550.065 348.225 554.749 335.71 559.509 322.943C561.776 316.855 564.061 310.722 566.364 304.543C573.746 284.701 581.193 264.552 588.345 245.171C614.515 174.228 636.66 113.332 636.66 113.332L624.266 107.913L574.218 238.146L549.879 301.478L542.19 321.484L530.2 352.689" stroke="#171717" stroke-width="3.291" stroke-linecap="round" stroke-linejoin="round"/>
<path d="M498.843 473.341C501.311 473.121 513.968 442.673 530.684 399.568" stroke="#171717" stroke-width="3.291" stroke-linecap="round" stroke-linejoin="round"/>
<path d="M471.487 467.648C476.335 470.1 481.483 471.907 486.799 473.023C490.757 473.864 494.786 474.331 498.831 474.416C507.857 474.641 516.828 472.94 525.144 469.425" stroke="#171717" stroke-width="3.291" stroke-linecap="round" stroke-linejoin="round"/>
<path d="M445.91 481.754C485.61 498.854 533.481 495.618 570.521 473.33" stroke="#171717" stroke-width="3.291" stroke-linecap="round" stroke-linejoin="round"/>
<path d="M569.282 459.444C578.649 454.815 589.771 457.502 599.949 459.883C610.127 462.264 621.722 463.952 630.233 457.897" stroke="#171717" stroke-width="3.291" stroke-linecap="round" stroke-linejoin="round"/>
<path d="M630.266 415.527C632.975 411.927 638.437 411.71 642.605 413.377C646.773 415.044 650.195 418.159 654.089 420.386C657.983 422.613 662.974 423.917 666.9 421.724" stroke="#171717" stroke-width="3.291" stroke-linecap="round" stroke-linejoin="round"/>
<path d="M451.985 460.672C449.353 456.472 443.375 455.649 438.615 457.053C433.855 458.457 429.774 461.528 425.299 463.667C420.824 465.806 415.285 466.902 411.029 464.347" stroke="#171717" stroke-width="3.291" stroke-linecap="round" stroke-linejoin="round"/>
<path d="M524.092 550.415C513.519 541.937 499.128 539.096 485.714 540.961C473.945 542.595 462.9 547.553 451.314 550.229C439.728 552.905 426.559 552.929 417.114 545.699" stroke="#171717" stroke-width="3.291" stroke-linecap="round" stroke-linejoin="round"/>
<path d="M257.473 522.128C252.767 517.072 244.673 517.763 237.905 519.167C231.137 520.571 223.405 522.095 217.855 517.982" stroke="#171717" stroke-width="3.291" stroke-linecap="round" stroke-linejoin="round"/>
<path d="M217.955 417.6C225.907 406.895 240.736 403.648 254.008 404.832C267.28 406.016 279.992 410.755 293.176 412.741C311.762 415.519 330.755 412.792 347.809 404.898" stroke="#171717" stroke-width="3.291" stroke-linecap="round" stroke-linejoin="round"/>
<path d="M206.58 472.672C202.138 466.072 193.067 464.105 185.203 465.356C177.339 466.607 170.165 470.401 162.674 473.089C155.183 475.777 146.674 477.3 139.41 474.065" stroke="#171717" stroke-width="3.291" stroke-linecap="round" stroke-linejoin="round"/>
<path d="M321.463 494.5C329.283 491.012 337.685 487.425 346.12 488.906C350.781 489.729 355.037 492.043 359.6 493.271C363.72 494.349 368.021 494.544 372.221 493.843C376.421 493.142 380.426 491.56 383.972 489.202" stroke="#171717" stroke-width="3.291" stroke-linecap="round" stroke-linejoin="round"/>
<path d="M559.641 323C565.958 324.053 574.591 325.38 580.908 326.433" stroke="#171717" stroke-width="3.291" stroke-linecap="round" stroke-linejoin="round"/>
<path d="M164.315 266.447C154.326 257.936 151.908 243.077 154.597 230.232C157.286 217.387 164.186 205.9 170.325 194.302C176.464 182.704 182.055 170.208 181.743 157.089C181.176 133.268 161.843 114.389 154.082 91.863C150.501 81.14 149.545 69.715 151.294 58.5459C153.043 47.3771 157.445 36.7908 164.132 27.6758" stroke="#171717" stroke-width="3.291" stroke-linecap="round" stroke-linejoin="round"/>
<path d="M265.554 164.141C269.7 160.696 272.838 156.194 274.636 151.112C276.434 146.03 276.825 140.557 275.768 135.271C272.868 121.706 260.949 111.98 255.347 99.29C252.678 93.085 251.55 86.327 252.058 79.592C252.567 72.857 254.697 66.345 258.267 60.6108" stroke="#171717" stroke-width="3.291" stroke-linecap="round" stroke-linejoin="round"/>
<path d="M534.184 149.292C526.675 141.019 526.42 127.133 533.62 118.592C538.37 112.956 545.448 109.908 551.225 105.331C565.517 94.007 570.441 72.367 562.456 55.9727" stroke="#171717" stroke-width="3.291" stroke-linecap="round" stroke-linejoin="round"/>
<path d="M700.982 295.167C689.048 276.041 690.182 249.624 703.7 231.586C714.523 217.15 731.963 208.278 741.041 192.686C750.955 175.656 748.782 154.168 743.207 135.267C737.632 116.366 728.955 98.215 726.553 78.657C724.151 59.0987 729.766 36.7427 746.57 26.4507" stroke="#171717" stroke-width="3.291" stroke-linecap="round" stroke-linejoin="round"/>
<path d="M308.505 181.079C305.707 180.119 303.132 178.601 300.936 176.617C298.741 174.634 296.971 172.225 295.732 169.538" stroke="#171717" stroke-width="3.291" stroke-linecap="round" stroke-linejoin="round"/>
<path d="M294.238 184.4L306.358 168.709" stroke="#171717" stroke-width="3.291" stroke-linecap="round" stroke-linejoin="round"/>
<path d="M330.948 141.869L318.634 127.769" stroke="#171717" stroke-width="3.291" stroke-linecap="round" stroke-linejoin="round"/>
<path d="M317.67 141.2L327.735 128.038" stroke="#171717" stroke-width="3.291" stroke-linecap="round" stroke-linejoin="round"/>
<path d="M516.707 46.2851L532.851 43.3301" stroke="#171717" stroke-width="3.291" stroke-linecap="round" stroke-linejoin="round"/>
<path d="M512.7 33.5108C521.191 23.2103 530.554 13.6604 540.684 4.9668" stroke="#171717" stroke-width="3.291" stroke-linecap="round" stroke-linejoin="round"/>
<path d="M501.1 20.4109L502.5 1.8179" stroke="#171717" stroke-width="3.291" stroke-linecap="round" stroke-linejoin="round"/>
<path d="M591.75 87.774L586.33 75.386" stroke="#171717" stroke-width="3.291" stroke-linecap="round" stroke-linejoin="round"/>
<path d="M581.689 87.008L596.399 76.945" stroke="#171717" stroke-width="3.291" stroke-linecap="round" stroke-linejoin="round"/>
<path d="M636.6 69.985L630.96 53.7998" stroke="#171717" stroke-width="3.291" stroke-linecap="round" stroke-linejoin="round"/>
<path d="M625.042 66.87C631.454 64.105 637.448 60.4559 642.849 56.0298" stroke="#171717" stroke-width="3.291" stroke-linecap="round" stroke-linejoin="round"/>
<path d="M445.673 208.319C446.132 203.073 446.454 197.817 446.639 192.552" stroke="#171717" stroke-width="3.291" stroke-linecap="round" stroke-linejoin="round"/>
<path d="M428.399 207.781L428.821 193.842" stroke="#171717" stroke-width="3.291" stroke-linecap="round" stroke-linejoin="round"/>
<path d="M407.535 208.293C407.191 203.805 407.367 199.293 408.057 194.846" stroke="#171717" stroke-width="3.291" stroke-linecap="round" stroke-linejoin="round"/>
<path d="M388.508 209.054C387.894 204.599 387.791 200.089 388.201 195.611" stroke="#171717" stroke-width="3.291" stroke-linecap="round" stroke-linejoin="round"/>
<path d="M290.057 281.33C287.586 279.611 285.479 277.421 283.857 274.885" stroke="url(#paint6_linear_1_436)" stroke-width="3.291" stroke-linecap="round" stroke-linejoin="round"/>
<path d="M314.191 253.552L319.831 245.269" stroke="url(#paint7_linear_1_436)" stroke-width="3.291" stroke-linecap="round" stroke-linejoin="round"/>
<path d="M372.553 273.96C369.981 271.927 368.041 269.203 366.962 266.107" stroke="url(#paint8_linear_1_436)" stroke-width="3.291" stroke-linecap="round" stroke-linejoin="round"/>
<path d="M403.557 238.194L410.026 229.694" stroke="url(#paint9_linear_1_436)" stroke-width="3.291" stroke-linecap="round" stroke-linejoin="round"/>
<path d="M453.424 271.779C451.383 269.48 449.703 266.883 448.442 264.079" stroke="url(#paint10_linear_1_436)" stroke-width="3.291" stroke-linecap="round" stroke-linejoin="round"/>
<path d="M487.664 235.067C489.685 232.778 492.179 230.955 494.975 229.727" stroke="url(#paint11_linear_1_436)" stroke-width="3.291" stroke-linecap="round" stroke-linejoin="round"/>
<path d="M533.021 280.4C529.94 278.201 527.648 275.069 526.486 271.466" stroke="url(#paint12_linear_1_436)" stroke-width="3.291" stroke-linecap="round" stroke-linejoin="round"/>
<path d="M607.233 287.14C609.188 284.903 611.554 283.063 614.202 281.72" stroke="url(#paint13_linear_1_436)" stroke-width="3.291" stroke-linecap="round" stroke-linejoin="round"/>
<path d="M619.525 366.923L615.27 355.7" stroke="url(#paint14_linear_1_436)" stroke-width="3.291" stroke-linecap="round" stroke-linejoin="round"/>
<path d="M565.387 390.829C568.364 388.84 571.001 386.383 573.194 383.553" stroke="url(#paint15_linear_1_436)" stroke-width="3.291" stroke-linecap="round" stroke-linejoin="round"/>
<g opacity="0.1">
<path d="M457.866 75.979C450.666 75.343 443.738 76.69 436.605 77.686C429.773 78.64 422.926 79.654 416.131 80.838C405.337 82.717 394.183 87.474 391.574 99.213C390.08 105.938 390.304 112.92 390.236 119.76C390.163 127.06 390.272 134.342 390.429 141.64C390.586 148.938 390.78 156.227 391.029 163.521C391.167 167.496 391.229 171.483 391.443 175.455C391.657 179.476 392.591 183.38 392.859 187.39C393.305 194.057 402.9 194.113 403.265 187.39C403.627 180.725 404.558 174.212 404.706 167.499C404.853 160.868 405.011 154.24 405.07 147.608C405.186 134.408 405.73 121.002 404.707 107.825C404.307 102.705 403.341 96.468 408.107 92.951C411.7 90.299 417.307 89.699 421.571 88.879C433.93 86.504 447.46 85.269 458.953 79.997C461.087 79.018 459.762 76.147 457.864 75.979H457.866Z" fill="#171717"/>
</g>
<g opacity="0.1">
<path d="M5.62391 469.119C4.26691 478.249 5.2769 487.407 6.1139 496.57C6.9619 505.842 8.2219 515.07 9.7479 524.26C12.8829 543.135 15.7709 562.707 21.0389 581.108C31.4711 617.843 46.849 652.989 66.75 685.581C105.679 749.075 162.304 802.029 228.566 836.158C237.823 840.926 247.249 845.32 256.844 849.342C266.181 853.264 276.007 856.022 285.644 859.142C295.725 862.41 306.474 862.195 316.481 865.266C326.158 868.237 335.956 871.417 346.068 872.3C348.785 872.537 348.986 868.595 346.678 867.788C338.065 864.776 329.019 863.217 320.196 860.881C311.635 858.615 304.427 853.624 296.469 849.899C288.218 846.037 279.933 842.699 271.906 838.345C264.386 834.266 256.532 830.766 248.943 826.803C217.696 810.594 188.43 790.824 161.727 767.889C106.461 719.844 64.005 658.814 38.1779 590.289C30.9149 570.968 23.5189 551.405 19.4949 531.106C17.4449 520.764 15.8509 510.357 14.4839 499.906C13.1439 489.665 13.0139 479.161 10.5999 469.12C10.0389 466.784 6.0119 466.542 5.6279 469.12L5.62391 469.119Z" fill="#171717"/>
</g>
<g opacity="0.1">
<path d="M439.078 485.527L439.066 485.6C438.782 487.318 439.213 489.624 441.034 490.437C459.42 498.648 480.185 501.695 500.2 501.586C510.114 501.502 520.009 500.679 529.8 499.123C534.862 498.333 539.886 497.336 544.872 496.132C549.578 494.992 555.664 493.973 558.878 490.088C561.211 487.268 560.531 482.874 556.686 481.788C552.22 480.521 547.612 482.301 543.239 483.414C538.566 484.602 533.851 485.606 529.095 486.426C519.842 487.993 510.48 488.822 501.095 488.906C481.819 489.132 463.203 486.04 444.325 482.614C442.576 482.296 440.339 482.79 439.488 484.582C439.334 484.892 439.194 485.208 439.068 485.532L439.078 485.527Z" fill="#171717"/>
</g>
<g opacity="0.1">
<path d="M464.271 473.821C466.507 476.114 468.316 478.321 471.258 479.74C474.257 481.067 477.367 482.127 480.553 482.909C486.778 484.586 493.162 485.608 499.6 485.96C506.075 486.323 512.571 486.055 518.995 485.16C524.895 484.36 532.726 483.47 535.995 477.837C537.569 475.121 535.94 472.443 533.362 471.364C528.483 469.322 522.33 472.058 517.414 473.059C511.553 474.232 505.578 474.729 499.604 474.54C493.872 474.372 488.171 473.641 482.583 472.357C479.825 471.729 477.146 470.765 474.392 470.157C471.554 469.534 468.867 469.816 465.992 469.657C463.82 469.533 462.861 472.374 464.269 473.818L464.271 473.821Z" fill="#171717"/>
</g>
<g opacity="0.1">
<path d="M566.819 467.016C573.008 468.445 579.771 468.161 586.109 469.321C592.357 470.463 598.519 472.021 604.818 472.882C613.137 474.015 630.649 475.287 635.024 465.92C636.454 462.86 634.748 459.455 631.224 459.29C628.44 459.16 626.632 460.341 624.05 461.242C621.476 462.128 618.792 462.657 616.074 462.812C610.753 463.015 605.428 462.555 600.222 461.442C590.166 459.537 575.434 454.814 566.039 461.019C563.812 462.49 563.925 466.347 566.823 467.019L566.819 467.016Z" fill="#171717"/>
</g>
<g opacity="0.1">
<path d="M629.944 426.6C635.375 418.675 647.101 426.8 652.828 429.986C658.849 433.337 669.466 438.447 675.028 431.8C676.728 429.766 675.944 427.294 673.58 426.315C671.057 425.272 668.509 425.449 665.875 424.915C663.265 424.326 660.744 423.399 658.375 422.157C653.816 419.89 649.39 417.102 644.428 415.768C636.956 413.76 628.053 416.228 624.038 423.147C621.8 427.003 627.484 430.196 629.947 426.601L629.944 426.6Z" fill="#171717"/>
</g>
<g opacity="0.1">
<path d="M409.172 556.94C416.452 564.94 427.799 564.496 437.803 563.018C449.015 561.361 459.888 558.153 471.219 557.209C482.179 556.257 493.217 556.743 504.051 558.654C509.568 559.71 515.025 561.058 520.399 562.693C525.792 564.27 531.242 566.4 536.926 565.96C539.226 565.782 541.666 563.026 539.926 560.741C533.578 552.43 521.433 549.781 511.66 547.711C500.414 545.302 488.914 544.295 477.42 544.711C466.142 545.15 455.308 547.429 444.34 549.911C438.84 551.276 433.241 552.204 427.595 552.689C422.125 553.04 416.55 552.423 411.066 552.379C410.544 552.392 410.036 552.556 409.605 552.852C409.174 553.148 408.838 553.562 408.638 554.045C408.438 554.528 408.383 555.059 408.478 555.572C408.574 556.086 408.817 556.561 409.177 556.94H409.172Z" fill="#171717"/>
</g>
<g opacity="0.1">
<path d="M406.674 474.575C410.718 474.551 413.921 474.709 417.96 473.983C422.06 473.246 426.134 472.344 430.216 471.519C438.038 469.937 446.199 468.995 452.916 464.554C455.345 462.947 454.197 459.72 451.516 459.4C443.505 458.443 435.695 461.306 427.973 463.394C424.273 464.394 420.546 465.336 416.861 466.394C412.695 467.594 409.587 469.278 405.748 471.165C404.081 471.985 404.933 474.582 406.671 474.572L406.674 474.575Z" fill="#171717"/>
</g>
<g opacity="0.1">
<path d="M316.491 505.049C319.121 506.754 321.54 505.198 324.091 504.1C326.915 502.732 329.933 501.808 333.039 501.359C340.594 500.551 347.089 504.483 354.19 506.282C368.235 509.838 383.969 503.482 392.103 491.672C393.77 489.251 391.027 486.672 388.609 487.128C381.96 488.381 376.172 491.719 369.709 493.678C362.484 495.866 356.558 494.172 349.6 491.906C337.508 487.966 323.458 488.22 315.329 499.389C314.938 500.049 314.732 500.801 314.732 501.568C314.732 502.334 314.938 503.086 315.329 503.746C315.599 504.274 316.002 504.722 316.499 505.046L316.491 505.049Z" fill="#171717"/>
</g>
<g opacity="0.1">
<path d="M214.044 430.537C223.228 424 231.771 418.637 243.514 419.211C257.954 419.911 271.784 423.526 286.122 425.052C299.577 426.344 313.141 425.933 326.493 423.828C338.746 422.028 354.527 419.202 363.399 409.739C363.89 409.22 364.221 408.57 364.35 407.867C364.48 407.165 364.404 406.44 364.13 405.779C363.857 405.119 363.398 404.553 362.81 404.147C362.222 403.742 361.528 403.516 360.814 403.497C353.758 402.944 346.602 405.158 339.744 406.526C333.191 407.834 326.636 409.226 319.994 409.995C305.612 411.565 291.094 411.389 276.754 409.472C262.972 407.723 249.14 405.898 235.509 409.395C225.476 411.968 213.854 417.266 210.533 427.837C209.939 429.725 212.327 431.759 214.044 430.537Z" fill="#171717"/>
</g>
<g opacity="0.1">
<path d="M129.341 482.113C139.765 491.237 157.1 481.65 168.401 478.694C175.508 476.833 182.936 476.555 190.162 477.879C193.699 478.536 197.167 479.524 200.519 480.831C204.254 482.243 206.769 483.837 210.862 483.215C213.211 482.858 215.107 479.522 214.202 477.333C211.42 470.607 202.428 468.246 195.773 466.862C188.52 465.404 181.053 465.36 173.783 466.73C166.183 468.077 159.163 471.33 151.966 473.976C144.74 476.632 137.313 477.243 130.044 479.449C129.778 479.527 129.537 479.672 129.344 479.871C129.15 480.07 129.012 480.315 128.941 480.583C128.871 480.851 128.871 481.133 128.942 481.401C129.012 481.669 129.151 481.914 129.344 482.113H129.341Z" fill="#171717"/>
</g>
<g opacity="0.1">
<path d="M206.75 527.762C210.562 531.782 216.536 530.535 221.563 530.255C227.956 529.898 234.426 529.236 240.832 529.398C246.748 529.547 251.727 531.863 257.257 533.638C262.204 535.227 268.118 536.338 272.113 532.338C273.999 530.451 273.959 526.327 271.183 525.124C268.71 524.053 266.773 524.139 264.147 523.723C261.492 523.172 258.895 522.365 256.395 521.315C250.873 519.208 244.978 518.257 239.074 518.52C232.914 518.808 226.753 519.615 220.616 520.213C215.465 520.713 209.627 520.475 206.405 525.09C206.163 525.511 206.066 526 206.129 526.482C206.191 526.965 206.409 527.413 206.75 527.76V527.762Z" fill="#171717"/>
</g>
</g>
<defs>
<linearGradient id="paint0_linear_1_436" x1="570.875" y1="304.543" x2="570.875" y2="326.584" gradientUnits="userSpaceOnUse">
<stop stop-color="#FFB800"/>
<stop offset="1" stop-color="#FF7F0A"/>
</linearGradient>
<linearGradient id="paint1_linear_1_436" x1="426.062" y1="293.713" x2="426.062" y2="744.325" gradientUnits="userSpaceOnUse">
<stop stop-color="#FFB800"/>
<stop offset="1" stop-color="#FF7F0A"/>
</linearGradient>
<linearGradient id="paint2_linear_1_436" x1="427.156" y1="633.292" x2="427.156" y2="881.813" gradientUnits="userSpaceOnUse">
<stop stop-color="#FFB800"/>
<stop offset="1" stop-color="#FF7F0A"/>
</linearGradient>
<linearGradient id="paint3_linear_1_436" x1="581.977" y1="107.908" x2="581.977" y2="360.241" gradientUnits="userSpaceOnUse">
<stop stop-color="#FFB800"/>
<stop offset="1" stop-color="#FF7F0A"/>
</linearGradient>
<linearGradient id="paint4_linear_1_436" x1="508.742" y1="399.348" x2="508.742" y2="474.416" gradientUnits="userSpaceOnUse">
<stop stop-color="#FFB800"/>
<stop offset="1" stop-color="#FF7F0A"/>
</linearGradient>
<linearGradient id="paint5_linear_1_436" x1="420.495" y1="191.447" x2="420.495" y2="210.21" gradientUnits="userSpaceOnUse">
<stop stop-color="#FFB800"/>
<stop offset="1" stop-color="#FF7F0A"/>
</linearGradient>
<linearGradient id="paint6_linear_1_436" x1="286.957" y1="274.885" x2="286.957" y2="281.33" gradientUnits="userSpaceOnUse">
<stop stop-color="#FFB800"/>
<stop offset="1" stop-color="#FF7F0A"/>
</linearGradient>
<linearGradient id="paint7_linear_1_436" x1="317.011" y1="245.269" x2="317.011" y2="253.552" gradientUnits="userSpaceOnUse">
<stop stop-color="#FFB800"/>
<stop offset="1" stop-color="#FF7F0A"/>
</linearGradient>
<linearGradient id="paint8_linear_1_436" x1="369.757" y1="266.107" x2="369.757" y2="273.96" gradientUnits="userSpaceOnUse">
<stop stop-color="#FFB800"/>
<stop offset="1" stop-color="#FF7F0A"/>
</linearGradient>
<linearGradient id="paint9_linear_1_436" x1="406.791" y1="229.694" x2="406.791" y2="238.194" gradientUnits="userSpaceOnUse">
<stop stop-color="#FFB800"/>
<stop offset="1" stop-color="#FF7F0A"/>
</linearGradient>
<linearGradient id="paint10_linear_1_436" x1="450.933" y1="264.079" x2="450.933" y2="271.779" gradientUnits="userSpaceOnUse">
<stop stop-color="#FFB800"/>
<stop offset="1" stop-color="#FF7F0A"/>
</linearGradient>
<linearGradient id="paint11_linear_1_436" x1="491.32" y1="229.727" x2="491.32" y2="235.067" gradientUnits="userSpaceOnUse">
<stop stop-color="#FFB800"/>
<stop offset="1" stop-color="#FF7F0A"/>
</linearGradient>
<linearGradient id="paint12_linear_1_436" x1="529.754" y1="271.466" x2="529.754" y2="280.4" gradientUnits="userSpaceOnUse">
<stop stop-color="#FFB800"/>
<stop offset="1" stop-color="#FF7F0A"/>
</linearGradient>
<linearGradient id="paint13_linear_1_436" x1="610.718" y1="281.72" x2="610.718" y2="287.14" gradientUnits="userSpaceOnUse">
<stop stop-color="#FFB800"/>
<stop offset="1" stop-color="#FF7F0A"/>
</linearGradient>
<linearGradient id="paint14_linear_1_436" x1="617.397" y1="355.7" x2="617.397" y2="366.923" gradientUnits="userSpaceOnUse">
<stop stop-color="#FFB800"/>
<stop offset="1" stop-color="#FF7F0A"/>
</linearGradient>
<linearGradient id="paint15_linear_1_436" x1="569.29" y1="383.553" x2="569.29" y2="390.829" gradientUnits="userSpaceOnUse">
<stop stop-color="#FFB800"/>
<stop offset="1" stop-color="#FF7F0A"/>
</linearGradient>
</defs>
</svg>
