<svg width="714" height="614" viewBox="0 0 714 614" fill="none" xmlns="http://www.w3.org/2000/svg">
<path d="M347.873 451.902C364.859 457.2 375.893 470.26 372.519 481.069C369.145 491.878 352.642 496.342 335.651 491.039C328.835 489.014 322.603 485.386 317.477 480.458L245.792 457.097L257.471 423.692L326.9 450.268C333.921 449.129 341.113 449.69 347.873 451.902Z" fill="#FFB6B6"/>
<path d="M194.305 206.79C177.212 204.766 161.474 216.318 158.29 233.233C146.933 293.566 122.811 424.033 125.987 427.21C130.123 431.345 284.518 476.836 284.518 476.836L302.439 438.238L200.428 388.611L222.8 244.309C225.64 225.99 212.714 208.97 194.305 206.79Z" fill="#E6E6E6"/>
<path d="M380.312 514.658C363.739 521.132 346.965 517.828 342.847 507.28C338.729 496.732 348.826 482.936 365.406 476.463C371.994 473.786 379.126 472.726 386.208 473.371L456.776 446.829L468.526 480.21L397.71 502.832C392.939 508.107 386.973 512.162 380.312 514.658Z" fill="#FFB6B6"/>
<path d="M482.08 228.147C498.998 224.978 515.477 235.447 519.79 252.11C535.176 311.543 568.011 440.094 565.055 443.477C561.207 447.881 410.218 503.645 410.218 503.645L389.744 466.338L488.189 409.968L456.17 267.495C452.105 249.409 463.858 231.559 482.08 228.147Z" fill="#E6E6E6"/>
<path d="M182.197 215.457L190.605 162.907L133.851 139.785L125.443 219.661L182.197 215.457Z" fill="#FFB6B6"/>
<path d="M513.663 223.728L505.255 171.178L562.009 148.056L570.417 227.932L513.663 223.728Z" fill="#FFB6B6"/>
<path d="M167.855 179.8C199.818 179.8 225.73 153.888 225.73 121.925C225.73 89.9611 199.818 64.0495 167.855 64.0495C135.891 64.0495 109.98 89.9611 109.98 121.925C109.98 153.888 135.891 179.8 167.855 179.8Z" fill="#FFB6B6"/>
<path d="M163.236 44.1155C164.911 45.0931 167.154 43.614 167.691 41.7507C168.228 39.8875 167.602 37.9091 166.982 36.0719L163.859 26.823C161.645 20.2634 159.294 13.4747 154.498 8.48203C147.258 0.946433 135.753 -0.970597 125.396 0.418223C112.096 2.20173 98.973 9.40372 92.7887 21.3132C86.6044 33.2226 89.2373 49.8405 100.412 57.2708C84.4857 75.5249 78.9341 95.8684 79.8106 120.078C80.6872 144.287 107.069 166.567 124.274 183.622C128.116 181.293 131.609 170.378 129.496 166.413C127.383 162.447 130.411 157.854 127.794 154.201C125.177 150.549 122.988 156.365 125.634 152.733C127.303 150.442 120.788 145.17 123.269 143.798C135.27 137.164 139.262 122.205 146.8 110.749C155.892 96.9318 171.452 87.5745 187.92 86.0221C196.991 85.167 206.572 86.7158 214.008 91.9822C221.443 97.2485 226.257 106.659 224.532 115.606C228.998 111.072 231.221 104.428 230.382 98.1196C229.544 91.8113 225.663 85.978 220.168 82.7677C223.509 71.7193 220.647 59.0105 212.892 50.4609C205.138 41.9113 173.681 43.3674 162.36 45.6175" fill="#2F2E41"/>
<path d="M161.478 86.3575C146.483 87.9761 135.657 100.965 126.515 112.959C121.246 119.873 115.727 127.508 115.859 136.199C115.993 144.987 121.868 152.524 124.676 160.852C129.265 174.464 124.792 190.659 113.867 199.986C124.662 202.034 136.332 193.94 138.196 183.111C140.366 170.505 130.81 158.338 131.941 145.597C132.938 134.372 141.784 125.733 149.305 117.339C156.825 108.946 163.888 97.809 160.428 87.0838" fill="#2F2E41"/>
<path d="M481.967 186.517C506.09 207.487 542.645 204.931 563.615 180.808C584.585 156.684 582.029 120.129 557.906 99.159C533.783 78.189 497.227 80.7452 476.257 104.868C455.287 128.992 457.843 165.547 481.967 186.517Z" fill="#FFB6B6"/>
<path d="M567.498 81.0843C568.12 82.9208 570.784 83.2762 572.411 82.2222C574.039 81.1683 574.865 79.2649 575.602 77.4713L579.313 68.4424C581.945 62.0389 584.625 55.3733 584.281 48.4586C583.761 38.0219 576.335 29.027 567.608 23.2804C556.4 15.9007 541.771 12.7267 529.29 17.6576C516.81 22.5886 507.894 36.8576 511.453 49.7965C487.458 53.1245 469.921 64.8357 454.7 83.6817C439.479 102.528 444.773 136.651 446.569 160.81C450.996 161.573 460.793 155.627 461.8 151.248C462.807 146.869 468.105 145.388 468.526 140.915C468.948 136.442 463.48 139.395 467.859 138.39C470.622 137.755 469.164 129.502 471.937 130.095C485.347 132.962 498.173 124.291 511.377 120.59C527.304 116.127 545.187 119.274 558.634 128.906C566.041 134.212 572.256 141.666 574.412 150.519C576.569 159.372 574.028 169.632 566.857 175.253C573.201 174.761 579.238 171.205 582.744 165.894C586.25 160.583 587.148 153.634 585.107 147.606C594.877 141.46 601.054 129.991 600.811 118.451C600.568 106.911 575.872 87.3726 565.851 81.6435" fill="#2F2E41"/>
<path d="M538.458 111.811C526.079 103.196 509.387 105.896 494.619 108.95C486.106 110.711 476.932 112.852 471.329 119.499C465.665 126.218 465.155 135.761 461.81 143.889C456.344 157.173 442.343 166.461 427.978 166.332C434.782 174.961 448.9 176.508 457.411 169.558C467.318 161.468 468.088 146.016 477.302 137.142C485.419 129.325 497.762 128.608 508.944 127.208C520.127 125.807 532.764 122.035 537.189 111.671" fill="#2F2E41"/>
<path d="M188.754 206.645L123.23 188.724L55.6823 216.295L26.7332 445.13L192.157 450.644V413.734C192.157 413.734 221.106 377.583 215.592 325.198L210.077 272.814L188.754 206.645Z" fill="#E6E6E6"/>
<path d="M219.038 299.696L89.4562 292.803L54.3037 392.746C54.3037 392.746 10.8801 452.712 3.98748 496.825C-2.90516 540.938 1.23042 602.972 1.23042 602.972H208.683L192.157 413.734C192.157 413.734 230.739 330.023 226.267 315.549C221.795 301.074 219.038 299.696 219.038 299.696Z" fill="#3F3D56"/>
<path d="M119.784 189.413H88.0777V306.588H119.784V189.413Z" fill="#3F3D56"/>
<path d="M217.659 215.605H185.953V312.102H217.659V215.605Z" fill="#3F3D56"/>
<path d="M504.35 217.673L569.873 199.752L637.421 227.323L666.37 456.159L500.947 461.673V424.762C500.947 424.762 484.025 387.026 500.257 336.916C516.111 287.978 483.026 283.843 483.026 283.843L504.35 217.673Z" fill="#E6E6E6"/>
<path d="M474.065 310.724L603.647 303.831L638.799 403.775C638.799 403.775 660.167 472.012 667.059 516.125C673.952 560.237 691.873 614 691.873 614H484.421L478.201 432.034L474.065 310.724Z" fill="#3F3D56"/>
<path d="M605.026 200.442H573.319V317.617H605.026V200.442Z" fill="#3F3D56"/>
<path d="M507.15 226.634H475.444V323.131H507.15V226.634Z" fill="#3F3D56"/>
<path d="M328.942 262.869L385.064 368.964L377.371 373.033L321.249 266.938C320.434 265.398 321.023 263.486 322.563 262.672L324.676 261.554C326.216 260.74 328.127 261.329 328.942 262.869Z" fill="#3F3D56"/>
<path d="M422.44 409.06C408.162 405.378 393.225 411.897 386.06 424.784C377.088 440.921 366.839 454.16 370.271 422.608C374.05 387.873 353.672 359.819 369.686 351.348C385.701 342.877 402.237 368.622 428.264 391.931C452.387 413.535 438.476 413.194 422.44 409.06Z" fill="#3F3D56"/>
<path d="M339.796 284.332C355.981 276.941 372.914 279.302 377.616 289.604C382.317 299.905 373.008 314.243 356.815 321.634C350.388 324.675 343.325 326.133 336.219 325.885L267.245 356.331L253.647 323.659L323.087 297.113C327.556 291.579 333.285 287.196 339.796 284.332Z" fill="#FFB6B6"/>
<path d="M61.8453 204.293C47.7654 214.193 43.7555 233.3 52.6736 248.021C84.4827 300.531 153.594 413.787 158.08 414.033C163.92 414.352 309.258 345.185 309.258 345.185L296.842 304.48L187.754 335.606L108.106 213.214C97.9945 197.677 77.0097 193.63 61.8453 204.293Z" fill="#E6E6E6"/>
<path d="M346.693 447.268L533.131 348.647L556.018 391.913C575.76 429.235 561.487 475.563 524.166 495.305L472.972 522.385C435.651 542.128 389.322 527.855 369.58 490.534L346.693 447.268Z" fill="#F9A826"/>
<path d="M504.649 513.56C488.464 520.953 471.531 518.594 466.828 508.294C462.125 497.993 471.433 483.653 487.624 476.26C494.051 473.218 501.113 471.76 508.22 472.007L577.189 441.55L590.792 474.22L521.356 500.776C516.888 506.311 511.159 510.694 504.649 513.56Z" fill="#FFB6B6"/>
<path d="M644.922 221.954C662.015 219.929 677.753 231.482 680.937 248.397C692.295 308.73 716.417 439.197 713.24 442.373C709.104 446.509 554.709 492 554.709 492L536.788 453.402L638.799 403.775L616.427 259.473C613.587 241.154 626.513 224.134 644.922 221.954Z" fill="#E6E6E6"/>
</svg>
